<svg width="20" height="19" viewBox="0 0 20 19" fill="none" xmlns="http://www.w3.org/2000/svg">
<path d="M10.102 1.46753C7.97364 1.46753 7.70677 1.47655 6.8709 1.51469C6.03678 1.55276 5.4671 1.68522 4.96859 1.87896C4.45326 2.07923 4.01623 2.3472 3.58056 2.78286C3.1449 3.21853 2.87693 3.65556 2.67666 4.1709C2.48292 4.66937 2.35046 5.23905 2.31239 6.07317C2.27425 6.90904 2.26526 7.17591 2.26526 9.30425C2.26526 11.4326 2.27425 11.6994 2.31239 12.5353C2.35046 13.3694 2.48292 13.9391 2.67666 14.4376C2.87693 14.9529 3.1449 15.3899 3.58056 15.8256C4.01623 16.2613 4.45326 16.5293 4.96859 16.7295C5.4671 16.9233 6.03678 17.0557 6.8709 17.0938C7.70677 17.1319 7.97364 17.1409 10.102 17.1409C12.2303 17.1409 12.4972 17.1319 13.333 17.0938C14.1672 17.0557 14.7368 16.9233 15.2353 16.7295C15.7506 16.5293 16.1877 16.2613 16.6234 15.8256C17.059 15.3899 17.327 14.9529 17.5273 14.4376C17.721 13.9391 17.8535 13.3694 17.8915 12.5353C17.9297 11.6994 17.9387 11.4326 17.9387 9.30425C17.9387 7.17591 17.9297 6.90904 17.8915 6.07317C17.8535 5.23905 17.721 4.66937 17.5273 4.1709C17.327 3.65556 17.059 3.21853 16.6234 2.78286C16.1877 2.3472 15.7506 2.07923 15.2353 1.87896C14.7368 1.68522 14.1672 1.55276 13.333 1.51469C12.4972 1.47655 12.2303 1.46753 10.102 1.46753ZM10.102 2.87958C12.1945 2.87958 12.4423 2.88754 13.2687 2.92524C14.0327 2.96012 14.4477 3.08778 14.7238 3.19507C15.0896 3.33724 15.3507 3.50709 15.6249 3.7813C15.8991 4.05552 16.069 4.3166 16.2111 4.68237C16.3185 4.95852 16.4461 5.37346 16.481 6.13753C16.5187 6.96388 16.5267 7.21175 16.5267 9.30425C16.5267 11.3967 16.5187 11.6446 16.481 12.4709C16.4461 13.235 16.3185 13.65 16.2111 13.9261C16.069 14.2919 15.8991 14.553 15.6249 14.8272C15.3507 15.1014 15.0896 15.2712 14.7238 15.4134C14.4477 15.5207 14.0327 15.6484 13.2687 15.6832C12.4424 15.7209 12.1946 15.7289 10.102 15.7289C8.00933 15.7289 7.76152 15.7209 6.93526 15.6832C6.17119 15.6484 5.75625 15.5207 5.4801 15.4134C5.1143 15.2712 4.85325 15.1014 4.579 14.8272C4.30478 14.553 4.13493 14.2919 3.9928 13.9261C3.88548 13.65 3.75781 13.235 3.72294 12.4709C3.68524 11.6446 3.67728 11.3967 3.67728 9.30425C3.67728 7.21175 3.68524 6.96388 3.72294 6.13753C3.75781 5.37346 3.88548 4.95852 3.9928 4.68237C4.13493 4.3166 4.30478 4.05552 4.579 3.7813C4.85325 3.50709 5.1143 3.33724 5.4801 3.19507C5.75625 3.08778 6.17119 2.96012 6.93526 2.92524C7.76161 2.88754 8.00948 2.87958 10.102 2.87958Z" fill="white"/>
<path d="M10.1023 11.9158C8.65955 11.9158 7.49002 10.7463 7.49002 9.30356C7.49002 7.86084 8.65955 6.69131 10.1023 6.69131C11.545 6.69131 12.7145 7.86084 12.7145 9.30356C12.7145 10.7463 11.545 11.9158 10.1023 11.9158ZM10.1023 5.2793C7.87971 5.2793 6.078 7.081 6.078 9.30356C6.078 11.5261 7.87971 13.3278 10.1023 13.3278C12.3248 13.3278 14.1265 11.5261 14.1265 9.30356C14.1265 7.081 12.3248 5.2793 10.1023 5.2793Z" fill="white"/>
<path d="M15.2254 5.1252C15.2254 5.64458 14.8044 6.0656 14.285 6.0656C13.7656 6.0656 13.3446 5.64458 13.3446 5.1252C13.3446 4.60583 13.7656 4.18481 14.285 4.18481C14.8044 4.18481 15.2254 4.60583 15.2254 5.1252Z" fill="white"/>
</svg>
