<svg width="19" height="19" viewBox="0 0 19 19" fill="none" xmlns="http://www.w3.org/2000/svg">
<g clip-path="url(#clip0_1_138)">
<path d="M9.69373 0.140869C4.62176 0.140869 0.510132 4.25261 0.510132 9.32447C0.510132 13.2152 2.93071 16.5412 6.34704 17.8793C6.26668 17.1527 6.19418 16.0352 6.37893 15.2419C6.54574 14.5253 7.45579 10.6771 7.45579 10.6771C7.45579 10.6771 7.18103 10.127 7.18103 9.3136C7.18103 8.03664 7.92118 7.08329 8.84281 7.08329C9.62625 7.08329 10.0048 7.67159 10.0048 8.37694C10.0048 9.16494 9.50314 10.3429 9.24416 11.4346C9.02785 12.3488 9.70259 13.0942 10.6041 13.0942C12.2365 13.0942 13.4911 11.3731 13.4911 8.88875C13.4911 6.68994 11.9111 5.15254 9.65506 5.15254C7.04198 5.15254 5.50817 7.11246 5.50817 9.13793C5.50817 9.92729 5.8122 10.7736 6.19163 11.2337C6.26661 11.3246 6.27766 11.4044 6.25534 11.4971C6.18557 11.7872 6.0307 12.411 6.00025 12.5386C5.96018 12.7067 5.86712 12.7424 5.69313 12.6614C4.5461 12.1275 3.82903 10.4507 3.82903 9.1037C3.82903 6.20672 5.93381 3.54633 9.89699 3.54633C13.0828 3.54633 15.5586 5.81638 15.5586 8.85026C15.5586 12.0154 13.563 14.5625 10.7931 14.5625C9.86252 14.5625 8.98763 14.0791 8.68823 13.508C8.68823 13.508 8.22768 15.2615 8.11604 15.6912C7.90862 16.4889 7.34899 17.4888 6.97461 18.0986C7.83397 18.3647 8.7471 18.5082 9.69373 18.5082C14.7659 18.5082 18.8775 14.3966 18.8775 9.32447C18.8775 4.25261 14.7659 0.140869 9.69373 0.140869Z" fill="white"/>
</g>
<defs>
<clipPath id="clip0_1_138">
<rect width="18.3673" height="18.3673" fill="white" transform="translate(0.510132 0.122314)"/>
</clipPath>
</defs>
</svg>
