<svg width="16" height="16" viewBox="0 0 16 16" fill="none" xmlns="http://www.w3.org/2000/svg">
<g clip-path="url(#clip0_1_271)">
<path d="M3.58113 15.6764C3.40583 15.6764 3.23175 15.6217 3.08319 15.5143C2.80645 15.3137 2.67717 14.969 2.75249 14.6364L3.78181 10.1022L0.291001 7.04082C0.0344029 6.81682 -0.0636221 6.46207 0.0417273 6.13748C0.147077 5.81349 0.433705 5.58412 0.773069 5.55275L5.39184 5.13342L7.21794 0.859999C7.35258 0.546026 7.65923 0.343262 7.99994 0.343262C8.34065 0.343262 8.64729 0.546026 8.78194 0.859266L10.608 5.13342L15.2261 5.55275C15.5662 5.58339 15.8528 5.81349 15.9582 6.13748C16.0635 6.46146 15.9661 6.81682 15.7095 7.04082L12.2187 10.1016L13.248 14.6356C13.3234 14.969 13.194 15.3137 12.9174 15.5137C12.6414 15.7136 12.2734 15.729 11.9827 15.5543L7.99994 13.1743L4.01717 15.5557C3.88252 15.6356 3.7325 15.6764 3.58113 15.6764ZM7.99994 12.149C8.15131 12.149 8.30122 12.1896 8.43599 12.2696L12.1947 14.5177L11.2233 10.2382C11.154 9.93359 11.2573 9.61559 11.4927 9.40953L14.7888 6.51883L10.428 6.12283C10.114 6.09414 9.84398 5.89675 9.7213 5.60743L7.99994 1.57462L6.27651 5.60804C6.15517 5.89541 5.88514 6.0928 5.5719 6.12149L1.21046 6.51749L4.50644 9.40819C4.74253 9.61486 4.84581 9.93225 4.77586 10.2376L3.80513 14.517L7.56389 12.2696C7.69854 12.1896 7.84857 12.149 7.99994 12.149ZM5.35656 5.21607C5.35656 5.21607 5.35656 5.2168 5.35583 5.21741L5.35656 5.21607ZM10.642 5.21411L10.6427 5.21546C10.6427 5.21472 10.6427 5.21472 10.642 5.21411Z" fill="black"/>
</g>
<defs>
<clipPath id="clip0_1_271">
<rect width="16" height="16" fill="white"/>
</clipPath>
</defs>
</svg>
