<svg width="20" height="20" viewBox="0 0 20 20" fill="none" xmlns="http://www.w3.org/2000/svg">
<g clip-path="url(#clip0_1_18)">
<path d="M8.81927 0.0244141C3.95637 0.0244141 0 3.96997 0 8.81963C0 13.6693 3.95641 17.6148 8.81927 17.6148C13.6821 17.6148 17.6386 13.6693 17.6386 8.81963C17.6386 3.96997 13.6822 0.0244141 8.81927 0.0244141ZM8.81927 16.169C4.75349 16.169 1.44578 12.8719 1.44578 8.81959C1.44578 4.76704 4.75349 1.47016 8.81927 1.47016C12.8851 1.47016 16.1928 4.76704 16.1928 8.81959C16.1928 12.8719 12.8851 16.169 8.81927 16.169Z" fill="#E2E2E2"/>
<path d="M19.787 18.7406L15.04 14.0177C14.7569 13.7362 14.2992 13.7374 14.0176 14.0203C13.7361 14.3035 13.7373 14.761 14.0202 15.0428L18.7672 19.7656C18.9084 19.9059 19.0925 19.976 19.2771 19.976C19.4629 19.976 19.6484 19.9049 19.7896 19.763C20.0711 19.4798 20.0699 19.0223 19.787 18.7406Z" fill="#E2E2E2"/>
</g>
<defs>
<clipPath id="clip0_1_18">
<rect width="20" height="20" fill="white"/>
</clipPath>
</defs>
</svg>
