<svg width="20" height="20" viewBox="0 0 20 20" fill="none" xmlns="http://www.w3.org/2000/svg">
<g clip-path="url(#clip0_1_25)">
<path d="M5.47642 19.5956C5.2573 19.5956 5.0397 19.5273 4.854 19.393C4.50807 19.1423 4.34648 18.7114 4.44063 18.2956L5.72728 12.6278L1.36377 8.80115C1.04302 8.52114 0.920492 8.07771 1.05218 7.67197C1.18386 7.26699 1.54215 6.98027 1.96635 6.94106L7.73981 6.4169L10.0224 1.07512C10.1907 0.682654 10.574 0.429199 10.9999 0.429199C11.4258 0.429199 11.8091 0.682654 11.9774 1.0742L14.2601 6.4169L20.0326 6.94106C20.4577 6.97936 20.816 7.26699 20.9477 7.67197C21.0794 8.07695 20.9576 8.52114 20.6369 8.80115L16.2733 12.6271L17.56 18.2947C17.6543 18.7114 17.4926 19.1423 17.1468 19.3922C16.8018 19.6422 16.3417 19.6614 15.9784 19.4431L10.9999 16.468L6.02148 19.4447C5.85317 19.5447 5.66563 19.5956 5.47642 19.5956ZM10.9999 15.1864C11.1891 15.1864 11.3765 15.2372 11.545 15.3371L16.2434 18.1472L15.0291 12.7978C14.9424 12.4171 15.0717 12.0196 15.3659 11.762L19.486 8.14867L14.035 7.65366C13.6425 7.6178 13.305 7.37106 13.1516 7.00942L10.9999 1.96839L8.84564 7.01018C8.69397 7.36938 8.35644 7.61612 7.96489 7.65198L2.51309 8.14699L6.63307 11.7604C6.92818 12.0187 7.05727 12.4154 6.96984 12.7971L5.75643 18.1463L10.4549 15.3371C10.6232 15.2372 10.8107 15.1864 10.9999 15.1864ZM7.69571 6.52021C7.69571 6.52021 7.69571 6.52112 7.6948 6.52189L7.69571 6.52021ZM14.3025 6.51777L14.3034 6.51944C14.3034 6.51853 14.3034 6.51853 14.3025 6.51777Z" fill="#E2E2E2"/>
</g>
<defs>
<clipPath id="clip0_1_25">
<rect width="20" height="20" fill="white"/>
</clipPath>
</defs>
</svg>
