<svg width="20" height="19" viewBox="0 0 20 19" fill="none" xmlns="http://www.w3.org/2000/svg">
<g clip-path="url(#clip0_1_134)">
<path d="M6.49041 16.7686C13.4215 16.7686 17.2125 11.0263 17.2125 6.04652C17.2125 5.88344 17.2125 5.72108 17.2015 5.55943C17.939 5.02595 18.5757 4.36548 19.0816 3.60883C18.3938 3.91358 17.6642 4.11339 16.9172 4.20172C17.7037 3.73091 18.2927 2.98983 18.5739 2.11738C17.8342 2.5563 17.0249 2.86567 16.181 3.03209C15.4685 2.2744 14.4733 1.84424 13.4333 1.84424C11.3641 1.84424 9.66139 3.54695 9.66139 5.61615C9.66139 5.90321 9.69418 6.18937 9.75904 6.46897C6.73065 6.31719 3.90516 4.88475 1.99259 2.53176C0.99803 4.24387 1.51264 6.46266 3.15928 7.56219C2.55965 7.54443 1.9729 7.38264 1.44893 7.09052V7.13827C1.44943 8.92528 2.72054 10.4785 4.47219 10.8323C3.91743 10.9836 3.33524 11.0057 2.77066 10.897C3.2631 12.4282 4.68312 13.4838 6.29131 13.514C4.95716 14.5624 3.30815 15.132 1.61129 15.1303C1.31146 15.1297 1.01191 15.1116 0.714233 15.0759C2.43739 16.1817 4.44295 16.7684 6.49041 16.7657" fill="white"/>
</g>
<defs>
<clipPath id="clip0_1_134">
<rect width="18.3673" height="18.3673" fill="white" transform="translate(0.714233 0.122314)"/>
</clipPath>
</defs>
</svg>
