<svg width="20" height="20" viewBox="0 0 20 20" fill="none" xmlns="http://www.w3.org/2000/svg">
<path d="M9.85748 9.63408C11.181 9.63408 12.327 9.15938 13.2635 8.22279C14.1998 7.28636 14.6747 6.14058 14.6747 4.81689C14.6747 3.49365 14.2 2.34771 13.2634 1.41098C12.3268 0.4747 11.1809 0 9.85748 0C8.53378 0 7.388 0.4747 6.45157 1.41113C5.51514 2.34756 5.04028 3.49349 5.04028 4.81689C5.04028 6.14058 5.51514 7.28652 6.45157 8.22295C7.38831 9.15922 8.53424 9.63408 9.85748 9.63408V9.63408ZM7.28043 2.23983C7.99896 1.5213 8.84186 1.17203 9.85748 1.17203C10.873 1.17203 11.716 1.5213 12.4347 2.23983C13.1532 2.95852 13.5027 3.80157 13.5027 4.81689C13.5027 5.83251 13.1532 6.6754 12.4347 7.39409C11.716 8.11278 10.873 8.46205 9.85748 8.46205C8.84216 8.46205 7.99927 8.11263 7.28043 7.39409C6.56174 6.67556 6.21231 5.83251 6.21231 4.81689C6.21231 3.80157 6.56174 2.95852 7.28043 2.23983Z" fill="#E2E2E2"/>
<path d="M18.2863 15.3791C18.313 15.76 18.3266 16.1575 18.3267 16.5604H17.8267C17.8266 16.1685 17.8134 15.7827 17.7875 15.4141L18.2863 15.3791ZM18.2863 15.3791L17.7875 15.4137C17.7619 15.0448 17.7099 14.6378 17.6321 14.2037L18.1236 14.1155L17.6321 14.2035C17.5543 13.7704 17.4548 13.3646 17.3372 12.9973C17.2187 12.6272 17.0572 12.2601 16.8564 11.907L16.8562 11.9068C16.6522 11.5476 16.4163 11.2418 16.1579 10.9947L16.1578 10.9946C15.8981 10.7462 15.5741 10.5404 15.1881 10.3874L18.2863 15.3791ZM12.5983 10.9402L12.5978 10.9406C12.2872 11.1384 11.8891 11.3105 11.4277 11.4595C10.9527 11.6132 10.4666 11.6924 9.98306 11.6924C9.49985 11.6924 9.01379 11.6132 8.53864 11.4596L12.5983 10.9402ZM12.5983 10.9402C12.9055 10.7439 13.1813 10.5661 13.4175 10.4121C13.7955 10.166 13.8836 10.161 13.9276 10.161C14.3909 10.161 14.8136 10.2393 15.1878 10.3872L12.5983 10.9402ZM7.36878 10.9405L7.36855 10.9404C7.06414 10.7458 6.78821 10.568 6.5485 10.4119L6.54848 10.4118C6.17086 10.1658 6.08279 10.1609 6.03882 10.1609C5.57537 10.1609 5.15274 10.2393 4.77871 10.3874L4.77863 10.3875C4.39294 10.5402 4.06867 10.746 3.80866 10.9947L7.36878 10.9405ZM7.36878 10.9405C7.67911 11.1386 8.0777 11.3107 8.53849 11.4596L7.36878 10.9405ZM3.11041 11.9067L3.11038 11.9068C2.90967 12.2601 2.74804 12.6272 2.62956 12.9972L3.11041 11.9067ZM3.11041 11.9067C3.31422 11.5478 3.5501 11.2422 3.80865 10.9947L3.11041 11.9067ZM2.33479 14.2037L2.33477 14.2038C2.25691 14.637 2.20499 15.0441 2.17941 15.4141L2.1794 15.4142C2.15369 15.784 2.14062 16.17 2.14062 16.5606C2.14062 17.4908 2.43195 18.1968 2.97163 18.7109C3.50975 19.223 4.23395 19.5001 5.16861 19.5001H14.7987C15.7331 19.5001 16.4573 19.223 16.9956 18.7109C17.5353 18.1974 17.8267 17.4912 17.8267 16.5606L2.33479 14.2037ZM2.33479 14.2037C2.41252 13.7706 2.512 13.3649 2.62952 12.9974L2.33479 14.2037ZM3.09035 18.5863L3.09032 18.5863C2.54898 18.071 2.31265 17.382 2.31265 16.5606C2.31265 16.1751 2.32536 15.7935 2.35092 15.4261L3.09035 18.5863ZM3.09035 18.5863C3.63237 19.1022 4.33487 19.328 5.16861 19.328H14.7986C15.6322 19.328 16.3347 19.1021 16.8768 18.5862L3.09035 18.5863ZM2.7933 13.0499L2.79333 13.0498C2.90912 12.6883 3.06627 12.3326 3.25984 11.9918L3.25998 11.9915C3.44955 11.6582 3.67289 11.3629 3.92758 11.119L2.7933 13.0499ZM2.7933 13.0499C2.67644 13.415 2.57961 13.8137 2.5041 14.234L2.7933 13.0499ZM6.06745 10.3308L6.18379 10.3926C6.24058 10.4228 6.32659 10.4724 6.45463 10.5559L6.06745 10.3308ZM6.06745 10.3308L5.93573 10.3343M6.06745 10.3308L5.93573 10.3343M5.93573 10.3343C5.54835 10.3447 5.1794 10.4138 4.84212 10.5473L5.93573 10.3343ZM8.48552 11.6231L8.48574 11.6232C8.98264 11.7839 9.48622 11.8644 9.98321 11.8644C10.4802 11.8644 10.984 11.7838 11.4806 11.6233L11.4806 11.6233C11.9869 11.4597 12.3907 11.2766 12.6909 11.0851C13.0041 10.885 13.2725 10.712 13.5116 10.556L13.5121 10.5557C13.6395 10.4728 13.7255 10.423 13.7826 10.3926L13.899 10.3308L14.0307 10.3343C14.4182 10.3447 14.7872 10.4138 15.1246 10.5473L15.1247 10.5473C15.4741 10.6856 15.7847 10.8758 16.0388 11.1189L8.48552 11.6231ZM8.48552 11.6231C7.98002 11.4599 7.57623 11.2767 7.27642 11.0857M8.48552 11.6231L7.27642 11.0857M17.1734 13.0497L17.1734 13.0497C17.2904 13.4151 17.3874 13.8137 17.4628 14.234L17.4629 14.2342C17.5384 14.6561 17.5904 15.0572 17.616 15.4262L17.6172 15.4434V15.4436C17.6421 15.8045 17.6545 16.18 17.6547 16.5604V16.5607C17.6545 17.3822 17.4182 18.071 16.8768 18.5861L17.1734 13.0497ZM17.1734 13.0497C17.0578 12.6883 16.9004 12.3324 16.7066 11.9917L17.1734 13.0497ZM7.27642 11.0857C6.97058 10.8903 6.6942 10.712 6.45474 10.556L7.27642 11.0857ZM2.50409 14.234C2.42838 14.6554 2.3765 15.0564 2.35094 15.4259L2.50409 14.234ZM4.84208 10.5473C4.49266 10.6856 4.18189 10.8756 3.9276 11.119L4.84208 10.5473Z" fill="white" stroke="#E2E2E2"/>
</svg>
